<?xml version="1.0" encoding="utf-8"?>
<!-- Generator: Adobe Illustrator 17.0.0, SVG Export Plug-In . SVG Version: 6.00 Build 0)  -->
<!DOCTYPE svg PUBLIC "-//W3C//DTD SVG 1.1//EN" "http://www.w3.org/Graphics/SVG/1.1/DTD/svg11.dtd">
<svg version="1.1" id="Calque_1" xmlns="http://www.w3.org/2000/svg" xmlns:xlink="http://www.w3.org/1999/xlink" x="0px" y="0px"
	 width="137.288px" height="42px" viewBox="0 0 137.288 42" style="enable-background:new 0 0 137.288 42;" xml:space="preserve">
<g>
	<path style="fill:#FED430;" d="M0,0.96h13.8c2.56,0,4.93,0.34,7.11,1.02c2.18,0.681,4.07,1.68,5.67,3
		c1.599,1.32,2.85,2.95,3.75,4.89c0.9,1.94,1.35,4.17,1.35,6.69c0,2-0.28,3.7-0.84,5.1c-0.561,1.4-1.18,2.56-1.86,3.48
		c-0.801,1.041-1.701,1.92-2.7,2.64l7.5,13.2h-15l-6-10.14v10.14H0V0.96z M12.48,27.06c1.56,0,3.08-0.16,4.56-0.48l5.7,9.6h1.86
		l-6-10.08c2.16-0.759,3.879-1.93,5.16-3.51c1.28-1.58,1.92-3.63,1.92-6.15c0-1.76-0.34-3.3-1.02-4.62
		c-0.68-1.32-1.61-2.43-2.79-3.33c-1.181-0.9-2.571-1.58-4.17-2.04c-1.6-0.459-3.34-0.69-5.22-0.69H6v30.42h1.56v-9.12H12.48z
		 M7.56,25.62V7.2h4.92c3.639,0,6.489,0.8,8.55,2.4c2.06,1.6,3.09,3.88,3.09,6.84c0,2.96-1.031,5.23-3.09,6.81
		c-2.061,1.581-4.911,2.37-8.55,2.37H7.56z M12.78,20.64h0.66c1.52,0,2.81-0.339,3.87-1.02c1.059-0.68,1.59-1.82,1.59-3.42
		c0-1.6-0.531-2.74-1.59-3.42c-1.061-0.68-2.351-1.02-3.87-1.02h-0.66V20.64z"/>
	<path style="fill:#FED430;" d="M34.979,0.96h13.56v40.02h-13.56V0.96z M42.54,36.18V5.76h-1.56v30.42H42.54z"/>
	<path style="fill:#FED430;" d="M51.839,21c0-3.2,0.56-6.09,1.68-8.67c1.12-2.58,2.64-4.79,4.56-6.63
		c1.92-1.839,4.16-3.25,6.72-4.23C67.358,0.49,70.079,0,72.959,0c2.279,0,4.31,0.22,6.09,0.66c1.779,0.44,3.31,0.94,4.59,1.5
		c1.479,0.64,2.76,1.34,3.84,2.1l-6.3,11.1c-0.641-0.48-1.341-0.939-2.1-1.38c-0.681-0.32-1.491-0.63-2.431-0.93
		c-0.94-0.3-2.01-0.45-3.21-0.45c-1.24,0-2.38,0.22-3.42,0.66c-1.041,0.441-1.95,1.041-2.73,1.8c-0.78,0.76-1.39,1.65-1.83,2.67
		c-0.44,1.02-0.66,2.11-0.66,3.27c0,1.161,0.229,2.25,0.69,3.27c0.459,1.02,1.089,1.911,1.89,2.67c0.799,0.76,1.74,1.36,2.82,1.8
		c1.08,0.441,2.259,0.66,3.54,0.66s2.42-0.159,3.42-0.48c1-0.32,1.84-0.68,2.521-1.08c0.8-0.439,1.5-0.96,2.1-1.56l6.301,11.1
		c-1.08,0.881-2.361,1.661-3.841,2.341c-1.28,0.561-2.819,1.079-4.619,1.56C77.818,41.76,75.758,42,73.438,42
		c-3.12,0-6-0.511-8.64-1.53c-2.64-1.021-4.92-2.45-6.84-4.29c-1.92-1.839-3.42-4.05-4.5-6.63C52.379,26.97,51.839,24.12,51.839,21z
		 M59.398,21c0-1.92,0.33-3.72,0.99-5.4c0.66-1.68,1.59-3.14,2.79-4.38c1.2-1.24,2.66-2.22,4.38-2.94
		c1.719-0.72,3.64-1.08,5.76-1.08c1.04,0,1.97,0.07,2.79,0.21c0.819,0.141,1.51,0.31,2.07,0.51c0.68,0.201,1.26,0.441,1.74,0.72
		l0.84-1.44c-0.641-0.28-1.32-0.54-2.04-0.78c-0.681-0.2-1.461-0.379-2.34-0.54c-0.881-0.159-1.9-0.24-3.061-0.24
		c-2.04,0-3.99,0.36-5.85,1.08c-1.86,0.72-3.5,1.75-4.92,3.09c-1.42,1.34-2.561,2.96-3.42,4.86c-0.861,1.9-1.29,4.011-1.29,6.33
		c0,2.361,0.41,4.48,1.23,6.36c0.819,1.881,1.95,3.49,3.39,4.83c1.44,1.341,3.12,2.37,5.04,3.09c1.92,0.721,3.96,1.08,6.121,1.08
		c1.199,0,2.279-0.1,3.239-0.3s1.779-0.42,2.46-0.66c0.76-0.279,1.44-0.6,2.04-0.96L80.519,33c-0.521,0.36-1.12,0.66-1.8,0.9
		c-0.6,0.24-1.32,0.45-2.16,0.63c-0.84,0.18-1.82,0.27-2.939,0.27c-2.201,0-4.181-0.36-5.94-1.08c-1.761-0.72-3.25-1.7-4.47-2.94
		c-1.22-1.239-2.16-2.7-2.82-4.38C59.729,24.72,59.398,22.92,59.398,21z"/>
	<path style="fill:#FED430;" d="M89.098,28.56c0.88,0.28,1.801,0.5,2.761,0.66c0.8,0.2,1.71,0.36,2.729,0.48
		c1.021,0.12,2.05,0.18,3.09,0.18c1.84,0,2.761-0.68,2.761-2.04c0-0.519-0.28-1.05-0.841-1.59s-1.27-1.14-2.13-1.8
		c-0.86-0.66-1.78-1.39-2.76-2.19c-0.98-0.799-1.9-1.719-2.76-2.76c-0.86-1.04-1.57-2.209-2.13-3.51
		c-0.561-1.299-0.84-2.79-0.84-4.47c0-1.88,0.339-3.54,1.02-4.98c0.68-1.44,1.62-2.64,2.82-3.6s2.609-1.689,4.229-2.19
		c1.62-0.5,3.35-0.75,5.19-0.75c0.96,0,1.92,0.051,2.88,0.15c0.96,0.101,1.819,0.19,2.58,0.27c0.879,0.12,1.74,0.24,2.58,0.36V12
		c-0.321-0.04-0.681-0.08-1.08-0.12c-0.32-0.039-0.681-0.08-1.08-0.12c-0.4-0.039-0.82-0.06-1.26-0.06c-0.24,0-0.54,0.01-0.9,0.03
		c-0.36,0.021-0.7,0.07-1.02,0.15c-0.321,0.081-0.601,0.22-0.841,0.42c-0.239,0.201-0.359,0.48-0.359,0.84
		c0,0.32,0.27,0.72,0.81,1.2s1.2,1.041,1.98,1.68c0.78,0.64,1.64,1.38,2.58,2.22c0.939,0.84,1.8,1.8,2.58,2.88
		c0.779,1.08,1.439,2.3,1.979,3.66c0.54,1.36,0.811,2.88,0.811,4.56c0,1.761-0.28,3.411-0.841,4.95
		c-0.561,1.541-1.431,2.88-2.609,4.02c-1.181,1.14-2.69,2.04-4.53,2.7s-4.02,0.99-6.54,0.99c-1.521,0-2.931-0.07-4.229-0.211
		c-1.301-0.141-2.451-0.311-3.45-0.51c-1.161-0.2-2.22-0.439-3.181-0.72V28.56z M94.138,35.76c0.561,0.119,1.16,0.221,1.801,0.3
		c0.56,0.081,1.149,0.149,1.77,0.21s1.25,0.09,1.89,0.09c1.12,0,2.21-0.129,3.271-0.39c1.06-0.26,2.01-0.69,2.85-1.29
		c0.841-0.6,1.51-1.37,2.011-2.31c0.499-0.939,0.75-2.09,0.75-3.45c0-1.16-0.291-2.259-0.87-3.3c-0.581-1.04-1.32-2.04-2.221-3
		c-0.899-0.96-1.859-1.88-2.88-2.76c-1.02-0.879-1.979-1.77-2.88-2.67c-0.899-0.9-1.641-1.8-2.22-2.7c-0.58-0.9-0.87-1.83-0.87-2.79
		c0-1.44,0.459-2.55,1.38-3.33c0.92-0.78,2.4-1.17,4.44-1.17c0.319,0,0.649,0.01,0.989,0.03c0.34,0.021,0.67,0.051,0.99,0.09
		c0.32,0.041,0.64,0.06,0.96,0.06V5.82c-0.28,0-0.58-0.02-0.899-0.06c-0.28-0.039-0.591-0.069-0.931-0.09
		c-0.34-0.02-0.689-0.03-1.05-0.03c-2.16,0-3.94,0.49-5.34,1.47c-1.4,0.981-2.1,2.511-2.1,4.59c0,1.12,0.289,2.17,0.869,3.15
		c0.58,0.98,1.32,1.94,2.221,2.88c0.899,0.94,1.859,1.851,2.88,2.73c1.02,0.88,1.979,1.77,2.88,2.67s1.64,1.83,2.22,2.79
		s0.87,1.96,0.87,3c0,1.92-0.65,3.381-1.95,4.38c-1.3,1-3.09,1.5-5.37,1.5c-1.359,0-2.601-0.099-3.72-0.3
		c-0.6-0.08-1.18-0.18-1.74-0.3V35.76z"/>
	<path style="fill:#77787B;" d="M125.476,2.29h-3.486v9.844h-1.148V2.29h-3.486V1.121h8.121V2.29z M136.16,3.171l-3.363,8.962
		h-1.066l-3.363-9.249v9.249h-1.128V1.121h1.415l3.609,9.413l3.609-9.413h1.415v11.013h-1.128V3.171z"/>
</g>
</svg>
